<?xml version="1.0" encoding="UTF-8" standalone="no"?>
<!-- Created with Inkscape (http://www.inkscape.org/) -->

<svg
   version="1.1"
   id="svg2"
   xml:space="preserve"
   width="491.51999"
   height="491.51999"
   viewBox="0 0 491.51999 491.51999"
   sodipodi:docname="1_(8).eps"
   xmlns:inkscape="http://www.inkscape.org/namespaces/inkscape"
   xmlns:sodipodi="http://sodipodi.sourceforge.net/DTD/sodipodi-0.dtd"
   xmlns="http://www.w3.org/2000/svg"
   xmlns:svg="http://www.w3.org/2000/svg"><defs
     id="defs6" /><sodipodi:namedview
     id="namedview4"
     pagecolor="#ffffff"
     bordercolor="#666666"
     borderopacity="1.0"
     inkscape:pageshadow="2"
     inkscape:pageopacity="0.0"
     inkscape:pagecheckerboard="0" /><g
     id="g8"
     inkscape:groupmode="layer"
     inkscape:label="ink_ext_XXXXXX"
     transform="matrix(1.3333333,0,0,-1.3333333,0,491.52)"><g
       id="g10"
       transform="scale(0.1)"><path
         d="m 1843.2,3686.4 c 508.98,0 969.78,-206.31 1303.34,-539.86 333.55,-333.56 539.86,-794.36 539.86,-1303.34 0,-508.98 -206.31,-969.782 -539.86,-1303.337 C 2812.98,206.309 2352.18,0 1843.2,0 1334.22,0 873.422,206.309 539.863,539.863 206.309,873.418 0,1334.22 0,1843.2 0,2352.18 206.309,2812.98 539.863,3146.54 873.422,3480.09 1334.22,3686.4 1843.2,3686.4 Z m 1221.88,-621.32 c -312.69,312.71 -744.7,506.12 -1221.88,506.12 -477.18,0 -909.18,-193.41 -1221.88,-506.12 -312.707,-312.7 -506.121,-744.7 -506.121,-1221.88 0,-477.18 193.414,-909.184 506.121,-1221.891 312.7,-312.696 744.7,-506.114 1221.88,-506.114 477.18,0 909.19,193.418 1221.88,506.114 312.71,312.707 506.13,744.711 506.13,1221.891 0,477.18 -193.42,909.18 -506.13,1221.88"
         style="fill:#000000;fill-opacity:1;fill-rule:nonzero;stroke:none"
         id="path12" /><path
         d="M 3333.64,2769.07 H 352.77 v 115.2 h 2980.87 v -115.2"
         style="fill:#000000;fill-opacity:1;fill-rule:nonzero;stroke:none"
         id="path14" /><path
         d="M 3628.8,1785.6 H 57.6016 v 115.2 H 3628.8 v -115.2"
         style="fill:#000000;fill-opacity:1;fill-rule:nonzero;stroke:none"
         id="path16" /><path
         d="M 3333.64,802.117 H 352.77 V 917.324 H 3333.64 V 802.117"
         style="fill:#000000;fill-opacity:1;fill-rule:nonzero;stroke:none"
         id="path18" /><path
         d="m 1843.2,3686.4 c 366.55,0 696.95,-209.24 934.8,-547.52 C 3011.73,2806.46 3156.3,2348.3 3156.3,1843.2 3156.3,1338.1 3011.73,879.934 2778,547.512 2540.15,209.23 2209.75,0 1843.2,0 1476.66,0 1146.25,209.23 908.402,547.512 674.668,879.934 530.098,1338.1 530.098,1843.2 c 0,505.1 144.57,963.26 378.304,1295.68 237.848,338.28 568.258,547.52 934.798,547.52 z m 840.75,-613.67 C 2467.41,3380.7 2170.04,3571.2 1843.2,3571.2 1516.36,3571.2 1219,3380.7 1002.45,3072.73 781.789,2758.9 645.297,2324.25 645.297,1843.2 645.297,1362.14 781.789,927.5 1002.45,613.66 1219,305.684 1516.36,115.195 1843.2,115.195 c 326.84,0 624.21,190.489 840.75,498.465 220.66,313.84 357.16,748.48 357.16,1229.54 0,481.05 -136.5,915.7 -357.16,1229.53"
         style="fill:#000000;fill-opacity:1;fill-rule:nonzero;stroke:none"
         id="path20" /><path
         d="m 1843.2,3686.4 c 182.26,0 340.67,-215.35 449.47,-563.49 102.65,-328.46 166.13,-780.99 166.13,-1279.71 0,-498.73 -63.48,-951.247 -166.13,-1279.712 C 2183.87,215.332 2025.46,0 1843.2,0 1660.95,0 1502.53,215.332 1393.73,563.488 1291.09,891.953 1227.6,1344.47 1227.6,1843.2 c 0,498.72 63.49,951.25 166.13,1279.71 108.8,348.14 267.22,563.49 449.47,563.49 z m 339.67,-597.7 c -93.16,298.11 -213.74,482.5 -339.67,482.5 -125.92,0 -246.5,-184.39 -339.66,-482.5 -99.32,-317.79 -160.74,-758.07 -160.74,-1245.5 0,-487.44 61.42,-927.72 160.74,-1245.512 93.16,-298.11 213.74,-482.493 339.66,-482.493 125.93,0 246.51,184.383 339.67,482.493 99.31,317.792 160.74,758.072 160.74,1245.512 0,487.43 -61.43,927.71 -160.74,1245.5"
         style="fill:#000000;fill-opacity:1;fill-rule:nonzero;stroke:none"
         id="path22" /></g></g></svg>
